# xmcd
#
# Track frame offsets:
#	150
#	18387
#	40510
#	49707
#	59247
#	63260
#	69450
#	78137
#	85435
#	92807
#	97930
#	102922
#	103767
#	104662
#	112162
#	115977
#	119230
#	125377
#	130525
#	137395
#	142220
#	148242
#	155602
#	162075
#	170750
#	176635
#	181025
#	183172
#	187752
#	192485
#	194607
#	195162
#	204815
#	222730
#
# Disc length: 3194 seconds
#
# Revision: 1
# Processed by: cddbd v1.5.1PL0 Copyright (c) Steve Scherf et al.
# Submitted via: CDex 1.50Beta5
#
DISCID=f40c7822
DTITLE=メサイア・サウンド・チーム - 改造町人シュビビンマン1&2
DYEAR=1900
DGENRE=ミュージック
TTITLE0=Marginal power
TTITLE1=Commission
TTITLE2=Marginal power
TTITLE3=Mastery
TTITLE4=Hometown
TTITLE5=Veracious narrative
TTITLE6=Commission
TTITLE7=Geologic time
TTITLE8=Intangible wall
TTITLE9=Waif's Song
TTITLE10=Fatty
TTITLE11=Clear
TTITLE12=Over
TTITLE13=改造町人シュビビンマン
TTITLE14=Come back again
TTITLE15=Cool down
TTITLE16=Transmission
TTITLE17=Doom
TTITLE18=Ster light magic
TTITLE19=Irreguler
TTITLE20=Japanism
TTITLE21=ZERO
TTITLE22=fire away
TTITLE23=ENDLESS
TTITLE24=Soul taker
TTITLE25=I'm in white
TTITLE26=Emergency call
TTITLE27=Heavy Heavy Heavy!!
TTITLE28=boy-hood
TTITLE29=敵基地内部
TTITLE30=Game Over
TTITLE31=Next Time
TTITLE32=fire away〜ENDLESS
TTITLE33=改造町人シュビビンマン〜Next Time
EXTD=
EXTT0=
EXTT1=
EXTT2=
EXTT3=
EXTT4=
EXTT5=
EXTT6=
EXTT7=
EXTT8=
EXTT9=
EXTT10=
EXTT11=
EXTT12=
EXTT13=
EXTT14=
EXTT15=
EXTT16=
EXTT17=
EXTT18=
EXTT19=
EXTT20=
EXTT21=
EXTT22=
EXTT23=
EXTT24=
EXTT25=
EXTT26=
EXTT27=
EXTT28=
EXTT29=
EXTT30=
EXTT31=
EXTT32=
EXTT33=
PLAYORDER=
